<svg width="152" height="9" viewBox="0 0 152 9" fill="none" xmlns="http://www.w3.org/2000/svg">
<path d="M0.957 8V0.245H1.859V8H0.957ZM7.12645 8.099C6.36379 8.099 5.71112 7.93767 5.16845 7.615C4.62579 7.29233 4.20779 6.834 3.91445 6.24C3.62845 5.646 3.48545 4.93833 3.48545 4.117C3.48545 3.303 3.62845 2.599 3.91445 2.005C4.20779 1.411 4.62579 0.952666 5.16845 0.63C5.71112 0.307333 6.36379 0.145999 7.12645 0.145999C7.66179 0.145999 8.15312 0.230333 8.60045 0.399C9.05512 0.567666 9.44012 0.813333 9.75545 1.136L9.40345 1.873C9.06612 1.55767 8.71412 1.33033 8.34745 1.191C7.98812 1.04433 7.58845 0.970999 7.14845 0.970999C6.27579 0.970999 5.60845 1.246 5.14645 1.796C4.68445 2.346 4.45345 3.11967 4.45345 4.117C4.45345 5.12167 4.68445 5.899 5.14645 6.449C5.60845 6.999 6.27579 7.274 7.14845 7.274C7.58845 7.274 7.98812 7.20433 8.34745 7.065C8.71412 6.91833 9.06612 6.68733 9.40345 6.372L9.75545 7.109C9.44012 7.42433 9.05512 7.67 8.60045 7.846C8.15312 8.01467 7.66179 8.099 7.12645 8.099ZM13.965 3.292L13.734 0.245H14.779L14.57 3.292H13.965ZM15.846 3.292L15.615 0.245H16.66L16.451 3.292H15.846ZM18.2949 8V0.245H21.3639C22.1999 0.245 22.8379 0.439333 23.2779 0.828C23.7252 1.21667 23.9489 1.77033 23.9489 2.489C23.9489 3.061 23.7912 3.53033 23.4759 3.897C23.1679 4.26367 22.7279 4.502 22.1559 4.612C22.4932 4.72933 22.7829 5.01533 23.0249 5.47L24.3889 8H23.3989L22.0569 5.514C21.8882 5.206 21.6939 4.997 21.4739 4.887C21.2539 4.777 20.9642 4.722 20.6049 4.722H19.1969V8H18.2949ZM19.1969 4.007H21.2319C22.4492 4.007 23.0579 3.501 23.0579 2.489C23.0579 1.49167 22.4492 0.993 21.2319 0.993H19.1969V4.007ZM25.6533 8V0.245H30.5483V1.004H26.5333V3.688H30.3173V4.447H26.5333V7.241H30.5483V8H25.6533ZM32.0664 8V0.245H35.1354C35.9714 0.245 36.6094 0.446666 37.0494 0.85C37.4967 1.25333 37.7204 1.829 37.7204 2.577C37.7204 3.31767 37.4967 3.89333 37.0494 4.304C36.6094 4.70733 35.9714 4.909 35.1354 4.909H32.9684V8H32.0664ZM32.9684 4.15H35.0254C36.228 4.15 36.8294 3.62567 36.8294 2.577C36.8294 1.521 36.228 0.993 35.0254 0.993H32.9684V4.15ZM37.4951 8L40.9161 0.245H41.6861L45.1071 8H44.1721L43.3141 6.02H39.2771L38.4301 8H37.4951ZM41.2901 1.301L39.6071 5.261H42.9951L41.3121 1.301H41.2901ZM46.2568 8V0.245H47.1588V8H46.2568ZM49.0713 8V0.245H52.1403C52.9763 0.245 53.6143 0.439333 54.0543 0.828C54.5016 1.21667 54.7253 1.77033 54.7253 2.489C54.7253 3.061 54.5676 3.53033 54.2523 3.897C53.9443 4.26367 53.5043 4.502 52.9323 4.612C53.2696 4.72933 53.5593 5.01533 53.8013 5.47L55.1653 8H54.1753L52.8333 5.514C52.6646 5.206 52.4703 4.997 52.2503 4.887C52.0303 4.777 51.7406 4.722 51.3813 4.722H49.9733V8H49.0713ZM49.9733 4.007H52.0083C53.2256 4.007 53.8343 3.501 53.8343 2.489C53.8343 1.49167 53.2256 0.993 52.0083 0.993H49.9733V4.007ZM59.2549 8V0.245H61.8729C63.1269 0.245 64.0949 0.578666 64.7769 1.246C65.4589 1.906 65.7999 2.863 65.7999 4.117C65.7999 5.371 65.4589 6.33167 64.7769 6.999C64.0949 7.66633 63.1269 8 61.8729 8H59.2549ZM60.1569 7.23H61.8069C63.8309 7.23 64.8429 6.19233 64.8429 4.117C64.8429 2.049 63.8309 1.015 61.8069 1.015H60.1569V7.23ZM67.4189 8V0.245H72.3139V1.004H68.2989V3.688H72.0829V4.447H68.2989V7.241H72.3139V8H67.4189ZM76.2326 8.099C75.6239 8.099 75.0739 8.022 74.5826 7.868C74.0912 7.70667 73.6659 7.47567 73.3066 7.175L73.6256 6.449C73.9996 6.735 74.3919 6.94767 74.8026 7.087C75.2132 7.22633 75.6899 7.296 76.2326 7.296C76.8926 7.296 77.3802 7.175 77.6956 6.933C78.0182 6.68367 78.1796 6.35733 78.1796 5.954C78.1796 5.63133 78.0622 5.37467 77.8276 5.184C77.6002 4.99333 77.2152 4.843 76.6726 4.733L75.5286 4.502C74.8392 4.35533 74.3222 4.117 73.9776 3.787C73.6402 3.44967 73.4716 3.00233 73.4716 2.445C73.4716 1.983 73.5889 1.57967 73.8236 1.235C74.0656 0.890333 74.3992 0.622666 74.8246 0.432C75.2499 0.241333 75.7412 0.145999 76.2986 0.145999C76.8192 0.145999 77.3032 0.230333 77.7506 0.399C78.1979 0.560333 78.5756 0.795 78.8836 1.103L78.5646 1.807C78.2346 1.50633 77.8862 1.29 77.5196 1.158C77.1529 1.01867 76.7422 0.949 76.2876 0.949C75.7082 0.949 75.2462 1.08467 74.9016 1.356C74.5569 1.62 74.3846 1.972 74.3846 2.412C74.3846 2.764 74.4909 3.04267 74.7036 3.248C74.9236 3.45333 75.2792 3.60367 75.7706 3.699L76.9146 3.941C77.6552 4.095 78.2016 4.32967 78.5536 4.645C78.9129 4.953 79.0926 5.37467 79.0926 5.91C79.0926 6.34267 78.9752 6.724 78.7406 7.054C78.5132 7.384 78.1832 7.64067 77.7506 7.824C77.3252 8.00733 76.8192 8.099 76.2326 8.099ZM80.4922 8V0.245H81.3942V8H80.4922ZM86.8486 8.099C85.6019 8.099 84.6523 7.747 83.9996 7.043C83.3469 6.339 83.0206 5.36733 83.0206 4.128C83.0206 3.30667 83.1673 2.599 83.4606 2.005C83.7539 1.411 84.1756 0.952666 84.7256 0.63C85.2756 0.307333 85.9393 0.145999 86.7166 0.145999C87.2666 0.145999 87.7726 0.230333 88.2346 0.399C88.6966 0.560333 89.0889 0.798666 89.4116 1.114L89.0596 1.84C88.7076 1.532 88.3446 1.30833 87.9706 1.169C87.5966 1.02967 87.1749 0.96 86.7056 0.96C85.8256 0.96 85.1509 1.23867 84.6816 1.796C84.2123 2.346 83.9776 3.12333 83.9776 4.128C83.9776 5.15467 84.2196 5.93933 84.7036 6.482C85.1876 7.02467 85.9099 7.296 86.8706 7.296C87.4939 7.296 88.0916 7.18967 88.6636 6.977V4.678H86.6946V3.963H89.4446V7.549C89.2393 7.659 88.9899 7.75433 88.6966 7.835C88.4106 7.91567 88.1063 7.978 87.7836 8.022C87.4609 8.07333 87.1493 8.099 86.8486 8.099ZM91.2881 8V0.245H91.9921L96.6671 6.482V0.245H97.5031V8H96.8211L92.1351 1.741V8H91.2881ZM102.256 8V0.245H105.325C106.161 0.245 106.799 0.446666 107.239 0.85C107.686 1.25333 107.91 1.829 107.91 2.577C107.91 3.31767 107.686 3.89333 107.239 4.304C106.799 4.70733 106.161 4.909 105.325 4.909H103.158V8H102.256ZM103.158 4.15H105.215C106.417 4.15 107.019 3.62567 107.019 2.577C107.019 1.521 106.417 0.993 105.215 0.993H103.158V4.15ZM109.217 8V0.245H112.286C113.122 0.245 113.76 0.439333 114.2 0.828C114.647 1.21667 114.871 1.77033 114.871 2.489C114.871 3.061 114.713 3.53033 114.398 3.897C114.09 4.26367 113.65 4.502 113.078 4.612C113.415 4.72933 113.705 5.01533 113.947 5.47L115.311 8H114.321L112.979 5.514C112.81 5.206 112.616 4.997 112.396 4.887C112.176 4.777 111.886 4.722 111.527 4.722H110.119V8H109.217ZM110.119 4.007H112.154C113.371 4.007 113.98 3.501 113.98 2.489C113.98 1.49167 113.371 0.993 112.154 0.993H110.119V4.007ZM119.777 8.099C119.059 8.099 118.432 7.93767 117.896 7.615C117.368 7.285 116.958 6.823 116.664 6.229C116.378 5.635 116.235 4.931 116.235 4.117C116.235 3.303 116.378 2.599 116.664 2.005C116.95 1.411 117.357 0.952666 117.885 0.63C118.421 0.307333 119.051 0.145999 119.777 0.145999C120.511 0.145999 121.141 0.307333 121.669 0.63C122.205 0.952666 122.615 1.411 122.901 2.005C123.195 2.59167 123.341 3.292 123.341 4.106C123.341 4.92 123.195 5.62767 122.901 6.229C122.608 6.823 122.194 7.285 121.658 7.615C121.13 7.93767 120.503 8.099 119.777 8.099ZM119.777 7.296C120.606 7.296 121.248 7.01733 121.702 6.46C122.157 5.90267 122.384 5.12167 122.384 4.117C122.384 3.11233 122.157 2.335 121.702 1.785C121.248 1.22767 120.606 0.949 119.777 0.949C118.963 0.949 118.329 1.22767 117.874 1.785C117.42 2.335 117.192 3.11233 117.192 4.117C117.192 5.11433 117.42 5.89533 117.874 6.46C118.329 7.01733 118.963 7.296 119.777 7.296ZM123.609 8.077L123.543 7.318L124.203 7.274C124.577 7.24467 124.863 7.11633 125.061 6.889C125.259 6.65433 125.358 6.33533 125.358 5.932V0.245H126.26V5.943C126.26 6.581 126.095 7.07967 125.765 7.439C125.435 7.791 124.955 7.989 124.324 8.033L123.609 8.077ZM128.177 8V0.245H133.072V1.004H129.057V3.688H132.841V4.447H129.057V7.241H133.072V8H128.177ZM137.913 8.099C137.15 8.099 136.497 7.93767 135.955 7.615C135.412 7.29233 134.994 6.834 134.701 6.24C134.415 5.646 134.272 4.93833 134.272 4.117C134.272 3.303 134.415 2.599 134.701 2.005C134.994 1.411 135.412 0.952666 135.955 0.63C136.497 0.307333 137.15 0.145999 137.913 0.145999C138.448 0.145999 138.939 0.230333 139.387 0.399C139.841 0.567666 140.226 0.813333 140.542 1.136L140.19 1.873C139.852 1.55767 139.5 1.33033 139.134 1.191C138.774 1.04433 138.375 0.970999 137.935 0.970999C137.062 0.970999 136.395 1.246 135.933 1.796C135.471 2.346 135.24 3.11967 135.24 4.117C135.24 5.12167 135.471 5.899 135.933 6.449C136.395 6.999 137.062 7.274 137.935 7.274C138.375 7.274 138.774 7.20433 139.134 7.065C139.5 6.91833 139.852 6.68733 140.19 6.372L140.542 7.109C140.226 7.42433 139.841 7.67 139.387 7.846C138.939 8.01467 138.448 8.099 137.913 8.099ZM143.755 8V1.026H140.939V0.245H147.484V1.026H144.668V8H143.755ZM148.436 3.292L148.205 0.245H149.25L149.041 3.292H148.436ZM150.317 3.292L150.086 0.245H151.131L150.922 3.292H150.317Z" fill="#E3B873"/>
</svg>
